<?xml version="1.0" encoding="UTF-8" standalone="no"?><svg xmlns="http://www.w3.org/2000/svg" xmlns:xlink="http://www.w3.org/1999/xlink" contentScriptType="application/ecmascript" contentStyleType="text/css" height="384px" preserveAspectRatio="none" style="width:688px;height:384px;background:#FFFFFF;" version="1.1" viewBox="0 0 688 384" width="688px" zoomAndPan="magnify"><defs><filter height="300%" id="fznwbt9max4oh" width="300%" x="-1" y="-1"><feGaussianBlur result="blurOut" stdDeviation="2.0"/><feColorMatrix in="blurOut" result="blurOut2" type="matrix" values="0 0 0 0 0 0 0 0 0 0 0 0 0 0 0 0 0 0 .4 0"/><feOffset dx="4.0" dy="4.0" in="blurOut2" result="blurOut3"/><feBlend in="SourceGraphic" in2="blurOut3" mode="normal"/></filter></defs><g><!--MD5=[44e3be5e93100f87f3b6fc2e9bda0b10]
class e01--><rect codeLine="5" fill="#FEFECE" filter="url(#fznwbt9max4oh)" height="158.6875" id="e01" style="stroke:#A80036;stroke-width:1.5;" width="289" x="7" y="7"/><ellipse cx="127.75" cy="23" fill="#ADD1B2" rx="11" ry="11" style="stroke:#A80036;stroke-width:1.0;"/><path d="M126.6094,23.7969 L126.6094,26.2969 L130.9375,26.2969 L130.9375,25.375 Q130.9375,24.7656 131.1719,24.5 Q131.4219,24.2344 131.7969,24.2344 Q132.1719,24.2344 132.4063,24.5 Q132.6406,24.7656 132.6406,25.375 L132.6406,28 L124.6406,28 Q124.0156,28 123.75,27.7656 Q123.5,27.5313 123.5,27.1406 Q123.5,26.7656 123.7656,26.5313 Q124.0313,26.2969 124.6406,26.2969 L124.9063,26.2969 L124.9063,19.6406 L124.6406,19.6406 Q124.0156,19.6406 123.75,19.4063 Q123.5,19.1719 123.5,18.7813 Q123.5,18.4063 123.75,18.1719 Q124.0156,17.9375 124.6406,17.9375 L132.2656,17.9375 L132.2656,20.5313 Q132.2656,21.1406 132.0313,21.4063 Q131.8125,21.6563 131.4219,21.6563 Q131.0469,21.6563 130.8125,21.4063 Q130.5781,21.1406 130.5781,20.5313 L130.5781,19.6406 L126.6094,19.6406 L126.6094,22.0938 L128.0938,22.0938 Q128.0938,21.4375 128.2188,21.25 Q128.4844,20.8438 128.9531,20.8438 Q129.3281,20.8438 129.5625,21.1094 Q129.7969,21.3594 129.7969,21.9688 L129.7969,23.9375 Q129.7969,24.4844 129.6719,24.6719 Q129.4063,25.0625 128.9531,25.0625 Q128.4844,25.0625 128.2188,24.6563 Q128.0938,24.4688 128.0938,23.7969 L126.6094,23.7969 Z " fill="#000000"/><text fill="#000000" font-family="sans-serif" font-size="12" lengthAdjust="spacing" textLength="39" x="148.25" y="27.9102">person</text><line style="stroke:#A80036;stroke-width:1.5;" x1="8" x2="295" y1="39" y2="39"/><text fill="#000000" font-family="sans-serif" font-size="11" lengthAdjust="spacing" textLength="151" x="13" y="54.4189">id : BIGSERIAL NOT NULL «PK»</text><line style="stroke:#A80036;stroke-width:1.0;" x1="8" x2="295" y1="60.8359" y2="60.8359"/><text fill="#000000" font-family="sans-serif" font-size="11" lengthAdjust="spacing" textLength="179" x="13" y="76.2549">first_name VARCHAR(50) NOT NULL</text><text fill="#000000" font-family="sans-serif" font-size="11" lengthAdjust="spacing" textLength="177" x="13" y="90.0908">last_name VARCHAR(50) NOT NULL</text><text fill="#000000" font-family="sans-serif" font-size="11" lengthAdjust="spacing" textLength="156" x="13" y="103.9268">gender VARCHAR(7) NOT NULL</text><text fill="#000000" font-family="sans-serif" font-size="11" lengthAdjust="spacing" textLength="105" x="13" y="117.7627">email VARCHAR(100)</text><text fill="#000000" font-family="sans-serif" font-size="11" lengthAdjust="spacing" textLength="147" x="13" y="131.5986">date_of_birth DATE NOT NULL</text><text fill="#000000" font-family="sans-serif" font-size="11" lengthAdjust="spacing" textLength="214" x="13" y="145.4346">country_of_birth VARCHAR(100) NOT NULL</text><text fill="#000000" font-family="sans-serif" font-size="11" lengthAdjust="spacing" textLength="277" x="13" y="159.2705">car_id BIGINT REFERENCES car(id) UNIQUE (car_id) «FK»</text><!--MD5=[a7e3466bc31fc7f02d93123623092e97]
class e02--><rect codeLine="17" fill="#FEFECE" filter="url(#fznwbt9max4oh)" height="103.3438" id="e02" style="stroke:#A80036;stroke-width:1.5;" width="174" x="64.5" y="247"/><ellipse cx="138.75" cy="263" fill="#ADD1B2" rx="11" ry="11" style="stroke:#A80036;stroke-width:1.0;"/><path d="M137.6094,263.7969 L137.6094,266.2969 L141.9375,266.2969 L141.9375,265.375 Q141.9375,264.7656 142.1719,264.5 Q142.4219,264.2344 142.7969,264.2344 Q143.1719,264.2344 143.4063,264.5 Q143.6406,264.7656 143.6406,265.375 L143.6406,268 L135.6406,268 Q135.0156,268 134.75,267.7656 Q134.5,267.5313 134.5,267.1406 Q134.5,266.7656 134.7656,266.5313 Q135.0313,266.2969 135.6406,266.2969 L135.9063,266.2969 L135.9063,259.6406 L135.6406,259.6406 Q135.0156,259.6406 134.75,259.4063 Q134.5,259.1719 134.5,258.7813 Q134.5,258.4063 134.75,258.1719 Q135.0156,257.9375 135.6406,257.9375 L143.2656,257.9375 L143.2656,260.5313 Q143.2656,261.1406 143.0313,261.4063 Q142.8125,261.6563 142.4219,261.6563 Q142.0469,261.6563 141.8125,261.4063 Q141.5781,261.1406 141.5781,260.5313 L141.5781,259.6406 L137.6094,259.6406 L137.6094,262.0938 L139.0938,262.0938 Q139.0938,261.4375 139.2188,261.25 Q139.4844,260.8438 139.9531,260.8438 Q140.3281,260.8438 140.5625,261.1094 Q140.7969,261.3594 140.7969,261.9688 L140.7969,263.9375 Q140.7969,264.4844 140.6719,264.6719 Q140.4063,265.0625 139.9531,265.0625 Q139.4844,265.0625 139.2188,264.6563 Q139.0938,264.4688 139.0938,263.7969 L137.6094,263.7969 Z " fill="#000000"/><text fill="#000000" font-family="sans-serif" font-size="12" lengthAdjust="spacing" textLength="17" x="159.25" y="267.9102">car</text><line style="stroke:#A80036;stroke-width:1.5;" x1="65.5" x2="237.5" y1="279" y2="279"/><text fill="#000000" font-family="sans-serif" font-size="11" lengthAdjust="spacing" textLength="130" x="70.5" y="294.4189">id : BIGINT NOT NULL «PK»</text><line style="stroke:#A80036;stroke-width:1.0;" x1="65.5" x2="237.5" y1="300.8359" y2="300.8359"/><text fill="#000000" font-family="sans-serif" font-size="11" lengthAdjust="spacing" textLength="159" x="70.5" y="316.2549">make VARCHAR(100) NOT NULL</text><text fill="#000000" font-family="sans-serif" font-size="11" lengthAdjust="spacing" textLength="162" x="70.5" y="330.0908">model VARCHAR(100) NOT NULL</text><text fill="#000000" font-family="sans-serif" font-size="11" lengthAdjust="spacing" textLength="159" x="70.5" y="343.9268">price NULMERIC(12,9) NOT NULL</text><!--MD5=[7d712c38379410506897aa674a718ccb]
class e03--><rect codeLine="26" fill="#FEFECE" filter="url(#fznwbt9max4oh)" height="144.8516" id="e03" style="stroke:#A80036;stroke-width:1.5;" width="226" x="389.5" y="226"/><ellipse cx="478.75" cy="242" fill="#ADD1B2" rx="11" ry="11" style="stroke:#A80036;stroke-width:1.0;"/><path d="M477.6094,242.7969 L477.6094,245.2969 L481.9375,245.2969 L481.9375,244.375 Q481.9375,243.7656 482.1719,243.5 Q482.4219,243.2344 482.7969,243.2344 Q483.1719,243.2344 483.4063,243.5 Q483.6406,243.7656 483.6406,244.375 L483.6406,247 L475.6406,247 Q475.0156,247 474.75,246.7656 Q474.5,246.5313 474.5,246.1406 Q474.5,245.7656 474.7656,245.5313 Q475.0313,245.2969 475.6406,245.2969 L475.9063,245.2969 L475.9063,238.6406 L475.6406,238.6406 Q475.0156,238.6406 474.75,238.4063 Q474.5,238.1719 474.5,237.7813 Q474.5,237.4063 474.75,237.1719 Q475.0156,236.9375 475.6406,236.9375 L483.2656,236.9375 L483.2656,239.5313 Q483.2656,240.1406 483.0313,240.4063 Q482.8125,240.6563 482.4219,240.6563 Q482.0469,240.6563 481.8125,240.4063 Q481.5781,240.1406 481.5781,239.5313 L481.5781,238.6406 L477.6094,238.6406 L477.6094,241.0938 L479.0938,241.0938 Q479.0938,240.4375 479.2188,240.25 Q479.4844,239.8438 479.9531,239.8438 Q480.3281,239.8438 480.5625,240.1094 Q480.7969,240.3594 480.7969,240.9688 L480.7969,242.9375 Q480.7969,243.4844 480.6719,243.6719 Q480.4063,244.0625 479.9531,244.0625 Q479.4844,244.0625 479.2188,243.6563 Q479.0938,243.4688 479.0938,242.7969 L477.6094,242.7969 Z " fill="#000000"/><text fill="#000000" font-family="sans-serif" font-size="12" lengthAdjust="spacing" textLength="39" x="499.25" y="246.9102">person</text><line style="stroke:#A80036;stroke-width:1.5;" x1="390.5" x2="614.5" y1="258" y2="258"/><text fill="#000000" font-family="sans-serif" font-size="11" lengthAdjust="spacing" textLength="151" x="395.5" y="273.4189">id : BIGSERIAL NOT NULL «PK»</text><line style="stroke:#A80036;stroke-width:1.0;" x1="390.5" x2="614.5" y1="279.8359" y2="279.8359"/><text fill="#000000" font-family="sans-serif" font-size="11" lengthAdjust="spacing" textLength="179" x="395.5" y="295.2549">first_name VARCHAR(50) NOT NULL</text><text fill="#000000" font-family="sans-serif" font-size="11" lengthAdjust="spacing" textLength="177" x="395.5" y="309.0908">last_name VARCHAR(50) NOT NULL</text><text fill="#000000" font-family="sans-serif" font-size="11" lengthAdjust="spacing" textLength="156" x="395.5" y="322.9268">gender VARCHAR(7) NOT NULL</text><text fill="#000000" font-family="sans-serif" font-size="11" lengthAdjust="spacing" textLength="105" x="395.5" y="336.7627">email VARCHAR(100)</text><text fill="#000000" font-family="sans-serif" font-size="11" lengthAdjust="spacing" textLength="147" x="395.5" y="350.5986">date_of_birth DATE NOT NULL</text><text fill="#000000" font-family="sans-serif" font-size="11" lengthAdjust="spacing" textLength="214" x="395.5" y="364.4346">country_of_birth VARCHAR(100) NOT NULL</text><!--MD5=[7bebe7b0065ab6ae71148dc043c4371c]
class e04--><rect codeLine="37" fill="#FEFECE" filter="url(#fznwbt9max4oh)" height="117.1797" id="e04" style="stroke:#A80036;stroke-width:1.5;" width="343" x="331" y="28"/><ellipse cx="489.75" cy="44" fill="#ADD1B2" rx="11" ry="11" style="stroke:#A80036;stroke-width:1.0;"/><path d="M488.6094,44.7969 L488.6094,47.2969 L492.9375,47.2969 L492.9375,46.375 Q492.9375,45.7656 493.1719,45.5 Q493.4219,45.2344 493.7969,45.2344 Q494.1719,45.2344 494.4063,45.5 Q494.6406,45.7656 494.6406,46.375 L494.6406,49 L486.6406,49 Q486.0156,49 485.75,48.7656 Q485.5,48.5313 485.5,48.1406 Q485.5,47.7656 485.7656,47.5313 Q486.0313,47.2969 486.6406,47.2969 L486.9063,47.2969 L486.9063,40.6406 L486.6406,40.6406 Q486.0156,40.6406 485.75,40.4063 Q485.5,40.1719 485.5,39.7813 Q485.5,39.4063 485.75,39.1719 Q486.0156,38.9375 486.6406,38.9375 L494.2656,38.9375 L494.2656,41.5313 Q494.2656,42.1406 494.0313,42.4063 Q493.8125,42.6563 493.4219,42.6563 Q493.0469,42.6563 492.8125,42.4063 Q492.5781,42.1406 492.5781,41.5313 L492.5781,40.6406 L488.6094,40.6406 L488.6094,43.0938 L490.0938,43.0938 Q490.0938,42.4375 490.2188,42.25 Q490.4844,41.8438 490.9531,41.8438 Q491.3281,41.8438 491.5625,42.1094 Q491.7969,42.3594 491.7969,42.9688 L491.7969,44.9375 Q491.7969,45.4844 491.6719,45.6719 Q491.4063,46.0625 490.9531,46.0625 Q490.4844,46.0625 490.2188,45.6563 Q490.0938,45.4688 490.0938,44.7969 L488.6094,44.7969 Z " fill="#000000"/><text fill="#000000" font-family="sans-serif" font-size="12" lengthAdjust="spacing" textLength="17" x="510.25" y="48.9102">car</text><line style="stroke:#A80036;stroke-width:1.5;" x1="332" x2="673" y1="60" y2="60"/><text fill="#000000" font-family="sans-serif" font-size="11" lengthAdjust="spacing" textLength="130" x="337" y="75.4189">id : BIGINT NOT NULL «PK»</text><line style="stroke:#A80036;stroke-width:1.0;" x1="332" x2="673" y1="81.8359" y2="81.8359"/><text fill="#000000" font-family="sans-serif" font-size="11" lengthAdjust="spacing" textLength="159" x="337" y="97.2549">make VARCHAR(100) NOT NULL</text><text fill="#000000" font-family="sans-serif" font-size="11" lengthAdjust="spacing" textLength="162" x="337" y="111.0908">model VARCHAR(100) NOT NULL</text><text fill="#000000" font-family="sans-serif" font-size="11" lengthAdjust="spacing" textLength="159" x="337" y="124.9268">price NULMERIC(12,9) NOT NULL</text><text fill="#000000" font-family="sans-serif" font-size="11" lengthAdjust="spacing" textLength="331" x="337" y="138.7627">person_id BIGINT REFERENCES person(id) UNIQUE (person_id) «FK»</text><!--MD5=[d671f3ea5a0db72fdb25a84842108817]
reverse link e01 to e02--><path codeLine="52" d="M151.5,174.04 C151.5,174.04 151.5,246.81 151.5,246.81 " fill="none" id="e01-backto-e02" style="stroke:#A80036;stroke-width:1.0;"/><line style="stroke:#A80036;stroke-width:1.0;" x1="151.5" x2="151.5" y1="177.04" y2="166.04"/><ellipse cx="151.5" cy="177.04" rx="4" ry="4" style="stroke:#A80036;stroke-width:1.0;fill:none;"/><line style="stroke:#A80036;stroke-width:1.0;fill:none;" x1="147.5" x2="155.5" y1="170.04" y2="170.04"/><!--MD5=[81e32bc47f8ac7c196058beecbcf5517]
reverse link e04 to e03--><path codeLine="53" d="M502.5,153.27 C502.5,153.27 502.5,225.62 502.5,225.62 " fill="none" id="e04-backto-e03" style="stroke:#A80036;stroke-width:1.0;"/><line style="stroke:#A80036;stroke-width:1.0;" x1="502.5" x2="502.5" y1="156.27" y2="145.27"/><ellipse cx="502.5" cy="156.27" rx="4" ry="4" style="stroke:#A80036;stroke-width:1.0;fill:none;"/><line style="stroke:#A80036;stroke-width:1.0;fill:none;" x1="498.5" x2="506.5" y1="149.27" y2="149.27"/><!--MD5=[d2cf6864a6476ae0d8fcb9a388bbe0b6]
@startuml

' avoid problems with angled crows feet
skinparam linetype ortho

entity "person" as e01 {
    id : BIGSERIAL NOT NULL <<PK>>
    - -
    first_name VARCHAR(50) NOT NULL
    last_name VARCHAR(50) NOT NULL
    gender VARCHAR(7) NOT NULL
    email VARCHAR(100) 
    date_of_birth DATE NOT NULL
    country_of_birth VARCHAR(100) NOT NULL
    car_id BIGINT REFERENCES car(id) UNIQUE (car_id) <<FK>>
}

entity "car" as e02 {
    id : BIGINT NOT NULL <<PK>>
    - -
    make VARCHAR(100) NOT NULL
    model VARCHAR(100) NOT NULL
    price NULMERIC(12,9) NOT NULL
}


entity "person" as e03 {
    id : BIGSERIAL NOT NULL <<PK>>
    - -
    first_name VARCHAR(50) NOT NULL
    last_name VARCHAR(50) NOT NULL
    gender VARCHAR(7) NOT NULL
    email VARCHAR(100) 
    date_of_birth DATE NOT NULL
    country_of_birth VARCHAR(100) NOT NULL
}

entity "car" as e04 {
    id : BIGINT NOT NULL <<PK>>
    - -
    make VARCHAR(100) NOT NULL
    model VARCHAR(100) NOT NULL
    price NULMERIC(12,9) NOT NULL
    person_id BIGINT REFERENCES person(id) UNIQUE (person_id) <<FK>>
}



' Zero or One	|o- -
' Exactly One	||- -
' Zero or Many	}o- -
' One or Many	}|- -
e01 |o- - e02
e04 |o- - e03


@enduml

@startuml

skinparam linetype ortho

entity "person" as e01 {
    id : BIGSERIAL NOT NULL <<PK>>
    - -
    first_name VARCHAR(50) NOT NULL
    last_name VARCHAR(50) NOT NULL
    gender VARCHAR(7) NOT NULL
    email VARCHAR(100) 
    date_of_birth DATE NOT NULL
    country_of_birth VARCHAR(100) NOT NULL
    car_id BIGINT REFERENCES car(id) UNIQUE (car_id) <<FK>>
}

entity "car" as e02 {
    id : BIGINT NOT NULL <<PK>>
    - -
    make VARCHAR(100) NOT NULL
    model VARCHAR(100) NOT NULL
    price NULMERIC(12,9) NOT NULL
}


entity "person" as e03 {
    id : BIGSERIAL NOT NULL <<PK>>
    - -
    first_name VARCHAR(50) NOT NULL
    last_name VARCHAR(50) NOT NULL
    gender VARCHAR(7) NOT NULL
    email VARCHAR(100) 
    date_of_birth DATE NOT NULL
    country_of_birth VARCHAR(100) NOT NULL
}

entity "car" as e04 {
    id : BIGINT NOT NULL <<PK>>
    - -
    make VARCHAR(100) NOT NULL
    model VARCHAR(100) NOT NULL
    price NULMERIC(12,9) NOT NULL
    person_id BIGINT REFERENCES person(id) UNIQUE (person_id) <<FK>>
}



e01 |o- - e02
e04 |o- - e03


@enduml

PlantUML version 1.2021.7(Sun May 23 14:40:07 CEST 2021)
(GPL source distribution)
Java Runtime: OpenJDK Runtime Environment
JVM: OpenJDK 64-Bit Server VM
Default Encoding: Cp1252
Language: fr
Country: FR
--></g></svg>